<?xml version="1.0" encoding="utf-8"?>
<!-- Generator: Adobe Illustrator 28.0.0, SVG Export Plug-In . SVG Version: 6.00 Build 0)  -->
<svg version="1.1" id="Layer_1" xmlns="http://www.w3.org/2000/svg" xmlns:xlink="http://www.w3.org/1999/xlink" x="0px" y="0px"
	 viewBox="0 0 413.78 217.3" style="enable-background:new 0 0 413.78 217.3;" xml:space="preserve">
<style type="text/css">
	.st0{enable-background:new    ;}
	.st1{fill:#FFFFFF;}
	.st2{fill:#BC0404;}
</style>
<g class="st0">
	<path class="st1" d="M16.81,46.21V21.87c0-3.61-0.06-4.43-1.05-4.43c-1.34,0-2.85,4.02-7.1,14.03H8.48L9,15.99
		c3.03,0.17,4.77,0.17,8.21,0.17h6.93c3.44,0,5.18,0,8.21-0.17l0.52,15.49H32.7c-4.25-10.01-5.76-14.03-7.1-14.03
		c-0.99,0-1.05,0.82-1.05,4.43v24.34c0,8.68,0.82,9.38,3.26,10.71H13.55C15.99,55.59,16.81,54.89,16.81,46.21z"/>
</g>
<g class="st0">
	<path class="st1" d="M48.74,51.1V36.84c0-2.62-0.58-4.43-3.03-4.43c-1.86,0-3.38,0.99-4.08,1.34V51.1c0,3.44,1.11,5.07,1.69,5.82
		H32.96c0.58-0.76,1.69-2.39,1.69-5.82V21.99c0-3.44-1.11-5.07-1.69-5.82l8.68-1.92v18.4c1.92-2.16,5.42-5.42,9.14-5.42
		c3.26,0,4.95,2.45,4.95,7.63V51.1c0,3.44,1.11,5.07,1.69,5.82H47.05C47.63,56.17,48.74,54.54,48.74,51.1z"/>
</g>
<g class="st0">
	<path class="st1" d="M57.66,42.08c0-8.38,4.66-14.85,11.18-14.85c4.83,0,8.09,3.44,7.98,8.91c0,1.51-0.29,2.97-0.87,3.79h-9.61
		c-1.34,0-1.92,0.35-1.92,1.69c0,4.25,3.38,10.54,9.67,10.54c1.46,0,2.74-0.35,3.49-1.46c-0.7,3.2-3.38,6.81-8.27,6.81
		C62.67,57.51,57.66,50.76,57.66,42.08z M70.3,32.76c0-2.21-0.52-4.19-2.33-4.19c-1.75,0-4.02,1.86-4.02,7.16
		c0,1.98,0.35,2.85,2.1,2.85C68.09,38.59,70.3,37.36,70.3,32.76z"/>
</g>
<g class="st0">
	<path class="st1" d="M105.98,75.29c2.03-2.2,1.36-6.1-1.27-14.75H90.64c-2.29,8.64-2.2,12.54-0.17,14.75h-9.83
		c2.46-2.29,5-6.36,7.8-15.59l13.47-45.09l14.41,45.09c2.88,9.24,4.75,13.31,7.12,15.59H105.98z M97.34,35.8l-6.19,22.63h12.97
		L97.34,35.8z"/>
</g>
<g class="st0">
	<path class="st1" d="M167.26,66.82V46.06c0-3.81-0.93-6.7-4.66-6.7c-2.63,0-4.83,1.44-5.68,2.12h-0.08c0.08,0.51,0.08,1.1,0.08,1.7
		v23.64c0,5,1.61,7.37,2.46,8.47h-15.08c0.85-1.1,2.46-3.47,2.46-8.47V46.06c0-3.81-0.85-6.7-4.58-6.7c-2.54,0-4.66,1.36-5.68,2.03
		v25.42c0,5,1.61,7.37,2.46,8.47h-15.08c0.85-1.1,2.46-3.47,2.46-8.47v-23.9c0-5-1.61-7.37-2.46-8.47l12.63-2.37v7.8
		c2.8-3.05,7.88-7.8,13.22-7.8c4.07,0,6.44,2.63,7.03,8.05c2.8-2.97,7.97-8.05,13.47-8.05c4.75,0,7.2,3.56,7.2,11.1v23.64
		c0,5,1.61,7.37,2.46,8.47H164.8C165.65,74.19,167.26,71.82,167.26,66.82z"/>
</g>
<g class="st0">
	<path class="st1" d="M180.47,73.26l-0.42-15.08c2.88,7.37,8.39,16.19,12.8,16.19c1.44,0,2.88-0.85,2.88-3.14
		c0-2.46-1.78-5.25-4.92-9.41l-5.76-7.8c-3.05-4.15-5.17-7.29-5.17-11.53c0-6.1,4.49-10.42,11.78-10.42c4.41,0,8.31,1.44,10,2.88
		l1.44,14.24c-3.56-6.61-7.71-15.34-11.61-15.34c-1.36,0-2.71,0.85-2.71,3.3c0,2.2,1.19,4.58,3.64,8.14l6.1,8.05
		c3.05,4.15,6.53,8.31,6.53,12.88c0,6.27-6.1,9.92-13.48,9.92C186.83,76.14,183.02,74.7,180.47,73.26z"/>
</g>
<g class="st0">
	<path class="st1" d="M225.63,70.97c-0.76,2.2-5.93,5.17-9.92,5.17c-4.24,0-7.54-3.47-7.54-8.64V37.75h-4.75l14.92-18.05v13.31
		c2.88,0,5.17-0.08,6.87-0.25l-1.27,5h-5.59v27.88c0,3.39,1.27,5.76,4.49,5.76c0.68,0,1.61-0.08,2.71-0.42H225.63z"/>
</g>
<g class="st0">
	<path class="st1" d="M222.74,53.68c0-12.2,6.78-21.61,16.27-21.61c7.04,0,11.78,5,11.61,12.97c0,2.2-0.42,4.32-1.27,5.51h-13.98
		c-1.95,0-2.8,0.51-2.8,2.46c0,6.19,4.92,15.34,14.07,15.34c2.12,0,3.98-0.51,5.08-2.12c-1.02,4.66-4.92,9.92-12.04,9.92
		C230.03,76.14,222.74,66.31,222.74,53.68z M241.13,40.12c0-3.22-0.76-6.1-3.39-6.1c-2.54,0-5.85,2.71-5.85,10.42
		c0,2.88,0.51,4.15,3.05,4.15C237.91,48.6,241.13,46.82,241.13,40.12z"/>
</g>
<g class="st0">
	<path class="st1" d="M278.26,38.43c0,4.15-2.54,8.22-5,8.22c-1.78,0-2.97-1.61-5.59-1.61c-1.78,0-2.8,1.27-2.8,5v16.78
		c0,5,1.61,7.37,2.46,8.47h-15.09c0.85-1.1,2.46-3.47,2.46-8.47v-23.9c0-5-1.61-7.37-2.46-8.47l12.63-2.37v10.08
		c0,0.85,0.25,1.19,0.68,1.19s0.59-0.25,1.02-1.1c2.37-5.34,4.32-10.17,7.8-10.17C276.74,32.07,278.26,34.95,278.26,38.43z"/>
</g>
<g class="st0">
	<path class="st1" d="M297.28,76.4v-9.75c-1.02,2.97-4.66,9.49-10.25,9.49c-6.19,0-11.19-8.14-11.19-19.83
		c0-13.9,7.2-24.24,17.8-24.24h3.64v-7.63c0-5-1.61-7.37-2.46-8.47l12.63-2.71v52.71c0,5,1.61,7.37,2.46,8.47L297.28,76.4z
		 M297.28,65.04V40.72c0-5.17-1.86-6.95-4.07-6.95c-4.24,0-7.29,6.7-7.29,15.59c0,8.14,1.78,18.64,7.71,18.64
		C296.18,68.01,297.28,66.31,297.28,65.04z"/>
</g>
<g class="st0">
	<path class="st1" d="M309.99,67.84c0-12.8,17.71-13.9,17.71-28.05c0-2.29-0.51-6.02-2.8-6.02c-2.97,0-10,12.37-12.29,15.59h-0.17
		l1.44-15.34c3.05-1.19,8.3-1.95,12.2-1.95c8.22,0,11.78,3.73,11.78,12.03v23.56c0,2.37,0.76,3.73,3.31,3.73
		c0.34,0,0.85,0,1.44-0.42c0,2.29-3.98,5.17-7.88,5.17c-4.15,0-7.03-3.39-7.03-7.88c0-0.51-0.17-0.59-0.34-0.59
		c-1.44,0-3.31,8.48-10.17,8.48C313.3,76.14,309.99,73.43,309.99,67.84z M327.71,61.4v-9.41c0-1.53-0.17-1.78-0.68-1.78
		c-1.86,0-7.2,5.25-7.2,12.37c0,4.24,1.87,5.76,3.56,5.76C325.25,68.35,327.71,65.46,327.71,61.4z"/>
</g>
<g class="st0">
	<path class="st1" d="M384.72,66.82V46.06c0-3.81-0.93-6.7-4.66-6.7c-2.63,0-4.83,1.44-5.68,2.12h-0.08c0.08,0.51,0.08,1.1,0.08,1.7
		v23.64c0,5,1.61,7.37,2.46,8.47h-15.08c0.85-1.1,2.46-3.47,2.46-8.47V46.06c0-3.81-0.85-6.7-4.58-6.7c-2.54,0-4.66,1.36-5.68,2.03
		v25.42c0,5,1.61,7.37,2.46,8.47h-15.08c0.85-1.1,2.46-3.47,2.46-8.47v-23.9c0-5-1.61-7.37-2.46-8.47l12.63-2.37v7.8
		c2.8-3.05,7.88-7.8,13.22-7.8c4.07,0,6.44,2.63,7.03,8.05c2.8-2.97,7.97-8.05,13.48-8.05c4.75,0,7.2,3.56,7.2,11.1v23.64
		c0,5,1.61,7.37,2.46,8.47h-15.08C383.11,74.19,384.72,71.82,384.72,66.82z"/>
</g>
<g>
	<rect x="13.53" y="64.97" class="st1" width="63.29" height="9.49"/>
</g>
<g class="st0">
	<path class="st1" d="M347.37,80.72h23.9c5,0,7.37-1.61,8.47-2.46l2.37,12.63h-34.75c-5,0-7.37,1.61-8.47,2.46V78.26
		C339.99,79.11,342.37,80.72,347.37,80.72z M395.84,79.7c3.47,0,6.19,2.54,6.19,6.02c0,3.05-2.2,5.51-5.42,5.51
		c-5.34,0-7.37-6.36-7.8-8.14C389.83,81.82,392.79,79.7,395.84,79.7z"/>
</g>
<g class="st0">
	<path class="st1" d="M346.35,93.33c12.8,0,13.9,17.71,28.05,17.71c2.29,0,6.02-0.51,6.02-2.8c0-2.97-12.37-10-15.59-12.29v-0.17
		l15.34,1.44c1.19,3.05,1.95,8.3,1.95,12.2c0,8.22-3.73,11.78-12.03,11.78h-23.56c-2.37,0-3.73,0.76-3.73,3.3
		c0,0.34,0,0.85,0.42,1.44c-2.29,0-5.17-3.98-5.17-7.88c0-4.15,3.39-7.03,7.88-7.03c0.51,0,0.59-0.17,0.59-0.34
		c0-1.44-8.48-3.31-8.48-10.17C338.05,96.63,340.76,93.33,346.35,93.33z M352.79,111.04h9.41c1.53,0,1.78-0.17,1.78-0.68
		c0-1.86-5.25-7.2-12.37-7.2c-4.24,0-5.76,1.87-5.76,3.56C345.84,108.58,348.72,111.04,352.79,111.04z"/>
</g>
<g class="st0">
	<path class="st1" d="M338.35,171.57c0-2.52,3.49-2.74,3.49-5.53c0-0.45-0.1-1.19-0.55-1.19c-0.58,0-1.97,2.44-2.42,3.07h-0.03
		l0.28-3.02c0.6-0.23,1.64-0.38,2.41-0.38c1.62,0,2.32,0.74,2.32,2.37v4.65c0,0.47,0.15,0.74,0.65,0.74c0.07,0,0.17,0,0.28-0.08
		c0,0.45-0.79,1.02-1.55,1.02c-0.82,0-1.39-0.67-1.39-1.55c0-0.1-0.03-0.12-0.07-0.12c-0.28,0-0.65,1.67-2,1.67
		C339,173.21,338.35,172.68,338.35,171.57z M341.84,170.31v-1.85c0-0.3-0.03-0.35-0.13-0.35c-0.37,0-1.42,1.04-1.42,2.44
		c0,0.84,0.37,1.14,0.7,1.14C341.35,171.68,341.84,171.11,341.84,170.31z"/>
</g>
<g class="st0">
	<path class="st1" d="M338.43,182.21c0-2.41,1.24-4.24,3.29-4.24c0.4,0,0.95,0.07,1.47,0.27c0.13,0.9,0.27,2.17,0.35,3.31h-0.02
		c-0.97-1.94-1.64-3.22-2.24-3.22c-0.38,0-1.02,0.52-1.02,2.42c0,2.02,0.77,4.38,2.69,4.38c0.38,0,0.7-0.08,0.94-0.42
		c-0.23,0.92-0.99,1.95-2.32,1.95C339.73,186.65,338.43,184.68,338.43,182.21z"/>
	<path class="st1" d="M344.64,182.29c0-2.47,1.29-4.33,3.24-4.33c2,0,3.14,1.97,3.14,4.33c0,2.51-1.3,4.36-3.26,4.36
		C345.78,186.65,344.64,184.68,344.64,182.29z M349.09,184.51c0-1.87-0.6-6.12-1.85-6.12c-0.47,0-0.67,0.6-0.67,1.69
		c0,1.89,0.62,6.12,1.85,6.12C348.89,186.2,349.09,185.62,349.09,184.51z"/>
	<path class="st1" d="M351.94,182.21c0-2.41,1.24-4.24,3.29-4.24c0.4,0,0.95,0.07,1.47,0.27c0.13,0.9,0.27,2.17,0.35,3.31h-0.02
		c-0.97-1.94-1.64-3.22-2.24-3.22c-0.38,0-1.02,0.52-1.02,2.42c0,2.02,0.77,4.38,2.69,4.38c0.38,0,0.7-0.08,0.94-0.42
		c-0.23,0.92-0.99,1.95-2.32,1.95C353.25,186.65,351.94,184.68,351.94,182.21z"/>
	<path class="st1" d="M360.56,184.81c0,0.99,0.32,1.45,0.49,1.67h-2.97c0.17-0.22,0.48-0.68,0.48-1.67v-8.35
		c0-0.99-0.32-1.45-0.48-1.67l2.49-0.55V184.81z M362.62,186.48l-2.06-4.31l0.69-0.83c1.02-1.25,1.12-1.59,1.12-1.94
		c0-0.63-0.45-1.15-0.89-1.25v-0.02h3.48v0.02c-1.14,0.58-1.59,0.87-2.64,2.25l-0.28,0.37l1.72,3.58c0.75,1.52,1.17,1.94,1.54,2.14
		H362.62z"/>
	<path class="st1" d="M369.67,185.63c-0.15,0.43-1.17,1.02-1.96,1.02c-0.83,0-1.49-0.68-1.49-1.7v-5.86h-0.94l2.94-3.56v2.62
		c0.57,0,1.02-0.02,1.35-0.05l-0.25,0.99h-1.1v5.5c0,0.67,0.25,1.14,0.89,1.14c0.13,0,0.32-0.02,0.53-0.08H369.67z"/>
	<path class="st1" d="M370.18,185.01c0-2.52,3.49-2.74,3.49-5.53c0-0.45-0.1-1.19-0.55-1.19c-0.58,0-1.97,2.44-2.42,3.07h-0.03
		l0.28-3.02c0.6-0.23,1.64-0.38,2.41-0.38c1.62,0,2.32,0.74,2.32,2.37v4.64c0,0.47,0.15,0.74,0.65,0.74c0.07,0,0.17,0,0.28-0.08
		c0,0.45-0.79,1.02-1.55,1.02c-0.82,0-1.39-0.67-1.39-1.55c0-0.1-0.03-0.12-0.07-0.12c-0.28,0-0.65,1.67-2,1.67
		C370.84,186.65,370.18,186.12,370.18,185.01z M373.68,183.74v-1.85c0-0.3-0.03-0.35-0.13-0.35c-0.37,0-1.42,1.04-1.42,2.44
		c0,0.83,0.37,1.14,0.7,1.14C373.19,185.11,373.68,184.55,373.68,183.74z"/>
	<path class="st1" d="M377.6,184.81v-4.71c0-0.99-0.32-1.45-0.48-1.67l2.49-0.47v6.85c0,0.99,0.32,1.45,0.49,1.67h-2.97
		C377.28,186.27,377.6,185.8,377.6,184.81z M377.4,175.26c0-0.69,0.5-1.22,1.19-1.22c0.6,0,1.09,0.43,1.09,1.07
		c0,1.05-1.25,1.45-1.6,1.54C377.82,176.44,377.4,175.86,377.4,175.26z"/>
	<path class="st1" d="M381.33,184.81v-8.35c0-0.99-0.32-1.45-0.48-1.67l2.49-0.55v10.58c0,0.99,0.32,1.45,0.48,1.67h-2.97
		C381.01,186.27,381.33,185.8,381.33,184.81z"/>
</g>
<g class="st0">
	<path class="st1" d="M338.91,198.2v-8.35c0-0.99-0.32-1.45-0.48-1.67l2.49-0.55v10.58c0,0.99,0.32,1.45,0.48,1.67h-2.97
		C338.6,199.65,338.91,199.18,338.91,198.2z"/>
	<path class="st1" d="M342.07,195.67c0-2.47,1.29-4.33,3.24-4.33c2.01,0,3.14,1.97,3.14,4.33c0,2.51-1.3,4.36-3.26,4.36
		C343.21,200.03,342.07,198.06,342.07,195.67z M346.52,197.9c0-1.87-0.6-6.12-1.85-6.12c-0.47,0-0.67,0.6-0.67,1.69
		c0,1.89,0.62,6.12,1.85,6.12C346.32,199.58,346.52,199,346.52,197.9z"/>
	<path class="st1" d="M353.73,200.03v-1.57c-0.55,0.6-1.55,1.57-2.62,1.57c-0.94,0-1.42-0.7-1.42-2.19v-4.03
		c0-1.15-0.32-1.79-0.49-2l2.49-0.47v5.93c0,0.75,0.17,1.3,0.9,1.3c0.52,0,0.97-0.28,1.14-0.42v-4.34c0-1.15-0.32-1.79-0.48-2
		l2.49-0.47v6.53c0,0.99,0.32,1.45,0.48,1.67L353.73,200.03z"/>
	<path class="st1" d="M361.58,198.2v-4.09c0-0.75-0.18-1.32-0.92-1.32c-0.5,0-0.92,0.27-1.12,0.4v5.01c0,0.99,0.32,1.45,0.48,1.67
		h-2.97c0.17-0.22,0.49-0.68,0.49-1.67v-4.71c0-0.99-0.32-1.45-0.49-1.67l2.49-0.47v1.54c0.57-0.58,1.57-1.54,2.62-1.54
		c0.94,0,1.42,0.7,1.42,2.19v4.66c0,0.99,0.32,1.45,0.48,1.67h-2.97C361.27,199.65,361.58,199.18,361.58,198.2z"/>
	<path class="st1" d="M371.01,200.85c0,1.24-1.57,2-3.26,2c-1.42,0-3.01-0.42-3.01-1.49c0-1.44,2.66-1.2,1.22-1.99
		c-0.54-0.28-0.82-0.52-0.82-0.85c0-0.3,0.17-0.48,1.05-1.07c0.3-0.18,0.4-0.27,0.4-0.38c0-0.1-0.1-0.18-0.4-0.37
		c-0.74-0.45-1.24-1.25-1.24-2.41c0-1.85,1.29-2.79,2.72-2.79h3.41l-1.25,1.14c0.35,0.42,0.6,0.99,0.6,1.72
		c0,1.74-1.25,2.72-2.72,2.72c-0.62,0-0.82,0.08-0.82,0.32c0,0.22,0.15,0.38,0.57,0.6C370.47,199.6,371.01,200.12,371.01,200.85z
		 M369.03,201.87c0-0.53-0.55-1.14-1.96-1.87c-0.4-0.22-0.77,0.17-0.77,0.82c0,0.89,0.74,1.72,1.72,1.72
		C368.53,202.54,369.03,202.37,369.03,201.87z M366.81,193.08c0,1.17,0.4,3.63,1.27,3.63c0.32,0,0.53-0.38,0.53-1.1
		c0-1.27-0.45-3.71-1.29-3.71C367,191.9,366.81,192.28,366.81,193.08z"/>
	<path class="st1" d="M371.59,195.61c0-2.41,1.34-4.26,3.21-4.26c1.39,0,2.32,0.99,2.29,2.56c0,0.43-0.08,0.85-0.25,1.09h-2.76
		c-0.38,0-0.55,0.1-0.55,0.48c0,1.22,0.97,3.02,2.77,3.02c0.42,0,0.79-0.1,1-0.42c-0.2,0.92-0.97,1.95-2.37,1.95
		C373.03,200.03,371.59,198.1,371.59,195.61z M375.21,192.93c0-0.63-0.15-1.2-0.67-1.2c-0.5,0-1.15,0.53-1.15,2.05
		c0,0.57,0.1,0.82,0.6,0.82C374.58,194.6,375.21,194.25,375.21,192.93z"/>
</g>
<g class="st0">
	<path class="st1" d="M347.37,147.69h20.76c3.81,0,6.7-0.93,6.7-4.66c0-2.54-1.36-4.66-2.03-5.68h-25.42c-5,0-7.37,1.61-8.47,2.46
		v-15.08c1.1,0.85,3.47,2.46,8.47,2.46h23.9c5,0,7.37-1.61,8.47-2.46l2.37,12.63h-7.8c2.97,2.88,7.8,7.97,7.8,13.3
		c0,4.75-3.56,7.2-11.1,7.2h-23.64c-5,0-7.37,1.61-8.47,2.46v-15.08C339.99,146.08,342.37,147.69,347.37,147.69z"/>
</g>
<g>
	
		<rect x="42.36" y="101.48" transform="matrix(0.7071 -0.7071 0.7071 0.7071 -90.4352 87.9773)" class="st2" width="37.23" height="103.35"/>
	
		<rect x="42.36" y="101.89" transform="matrix(-0.7071 -0.7071 0.7071 -0.7071 -4.196 304.5691)" class="st2" width="37.23" height="102.53"/>
	
		<rect x="143.6" y="101.48" transform="matrix(0.7071 -0.7071 0.7071 0.7071 -60.785 159.5593)" class="st2" width="37.23" height="103.35"/>
	
		<rect x="143.6" y="101.89" transform="matrix(-0.7071 -0.7071 0.7071 -0.7071 168.6183 376.1511)" class="st2" width="37.23" height="102.53"/>
	
		<rect x="243.87" y="101.48" transform="matrix(0.7071 -0.7071 0.7071 0.7071 -31.4149 230.465)" class="st2" width="37.23" height="103.35"/>
	
		<rect x="243.87" y="101.89" transform="matrix(-0.7071 -0.7071 0.7071 -0.7071 339.7998 447.0568)" class="st2" width="37.23" height="102.53"/>
</g>
</svg>
