<?xml version="1.0" encoding="utf-8"?>
<!-- Generator: Adobe Illustrator 28.0.0, SVG Export Plug-In . SVG Version: 6.00 Build 0)  -->
<svg version="1.1" id="Layer_1" xmlns="http://www.w3.org/2000/svg" xmlns:xlink="http://www.w3.org/1999/xlink" x="0px" y="0px"
	 viewBox="0 0 720 720" style="enable-background:new 0 0 720 720;" xml:space="preserve">
<style type="text/css">
	.st0{enable-background:new    ;}
	.st1{fill:#FFFFFF;}
	.st2{fill:#BC0404;}
</style>
<g class="st0">
	<path class="st1" d="M153.08,302.2v-24.34c0-3.61-0.06-4.43-1.05-4.43c-1.34,0-2.85,4.02-7.1,14.03h-0.17l0.52-15.49
		c3.03,0.17,4.77,0.17,8.21,0.17h6.93c3.44,0,5.18,0,8.21-0.17l0.52,15.49h-0.17c-4.25-10.01-5.76-14.03-7.1-14.03
		c-0.99,0-1.05,0.82-1.05,4.43v24.34c0,8.68,0.82,9.38,3.26,10.71h-14.27C152.27,311.58,153.08,310.88,153.08,302.2z"/>
</g>
<g class="st0">
	<path class="st1" d="M185.02,307.09v-14.27c0-2.62-0.58-4.43-3.03-4.43c-1.86,0-3.38,0.99-4.08,1.34v17.35
		c0,3.44,1.11,5.07,1.69,5.82h-10.36c0.58-0.76,1.69-2.39,1.69-5.82v-29.11c0-3.44-1.11-5.07-1.69-5.82l8.68-1.92v18.4
		c1.92-2.16,5.42-5.42,9.14-5.42c3.26,0,4.95,2.45,4.95,7.63v16.25c0,3.44,1.11,5.07,1.69,5.82h-10.36
		C183.91,312.16,185.02,310.53,185.02,307.09z"/>
</g>
<g class="st0">
	<path class="st1" d="M193.94,298.07c0-8.38,4.66-14.85,11.18-14.85c4.83,0,8.09,3.44,7.98,8.91c0,1.51-0.29,2.97-0.87,3.79h-9.61
		c-1.34,0-1.92,0.35-1.92,1.69c0,4.25,3.38,10.54,9.67,10.54c1.46,0,2.74-0.35,3.49-1.46c-0.7,3.2-3.38,6.81-8.27,6.81
		C198.95,313.5,193.94,306.74,193.94,298.07z M206.58,288.75c0-2.21-0.52-4.19-2.33-4.19c-1.75,0-4.02,1.86-4.02,7.16
		c0,1.98,0.35,2.85,2.1,2.85C204.36,294.57,206.58,293.35,206.58,288.75z"/>
</g>
<g class="st0">
	<path class="st1" d="M242.26,331.28c2.03-2.2,1.36-6.1-1.27-14.75h-14.07c-2.29,8.64-2.2,12.54-0.17,14.75h-9.83
		c2.46-2.29,5-6.36,7.8-15.59l13.47-45.09l14.41,45.09c2.88,9.24,4.75,13.31,7.12,15.59H242.26z M233.61,291.79l-6.19,22.63h12.97
		L233.61,291.79z"/>
</g>
<g class="st0">
	<path class="st1" d="M303.54,322.81v-20.76c0-3.81-0.93-6.7-4.66-6.7c-2.63,0-4.83,1.44-5.68,2.12h-0.08
		c0.08,0.51,0.08,1.1,0.08,1.7v23.64c0,5,1.61,7.37,2.46,8.47h-15.08c0.85-1.1,2.46-3.47,2.46-8.47v-20.76c0-3.81-0.85-6.7-4.58-6.7
		c-2.54,0-4.66,1.36-5.68,2.03v25.42c0,5,1.61,7.37,2.46,8.47h-15.08c0.85-1.1,2.46-3.47,2.46-8.47v-23.9c0-5-1.61-7.37-2.46-8.47
		l12.63-2.37v7.8c2.8-3.05,7.88-7.8,13.22-7.8c4.07,0,6.44,2.63,7.03,8.05c2.8-2.97,7.97-8.05,13.47-8.05c4.75,0,7.2,3.56,7.2,11.1
		v23.64c0,5,1.61,7.37,2.46,8.47h-15.09C301.93,330.18,303.54,327.81,303.54,322.81z"/>
</g>
<g class="st0">
	<path class="st1" d="M316.75,329.25l-0.42-15.08c2.88,7.37,8.39,16.19,12.8,16.19c1.44,0,2.88-0.85,2.88-3.14
		c0-2.46-1.78-5.25-4.92-9.41l-5.76-7.8c-3.05-4.15-5.17-7.29-5.17-11.53c0-6.1,4.49-10.42,11.78-10.42c4.41,0,8.31,1.44,10,2.88
		l1.44,14.24c-3.56-6.61-7.71-15.34-11.61-15.34c-1.36,0-2.71,0.85-2.71,3.3c0,2.2,1.19,4.58,3.64,8.14l6.1,8.05
		c3.05,4.15,6.53,8.31,6.53,12.88c0,6.27-6.1,9.92-13.48,9.92C323.11,332.13,319.29,330.69,316.75,329.25z"/>
</g>
<g class="st0">
	<path class="st1" d="M361.91,326.96c-0.76,2.2-5.93,5.17-9.92,5.17c-4.24,0-7.54-3.47-7.54-8.64v-29.75h-4.75l14.92-18.05v13.31
		c2.88,0,5.17-0.08,6.87-0.25l-1.27,5h-5.59v27.88c0,3.39,1.27,5.76,4.49,5.76c0.68,0,1.61-0.08,2.71-0.42H361.91z"/>
</g>
<g class="st0">
	<path class="st1" d="M359.02,309.67c0-12.2,6.78-21.61,16.27-21.61c7.04,0,11.78,5,11.61,12.97c0,2.2-0.42,4.32-1.27,5.51h-13.98
		c-1.95,0-2.8,0.51-2.8,2.46c0,6.19,4.92,15.34,14.07,15.34c2.12,0,3.98-0.51,5.08-2.12c-1.02,4.66-4.92,9.92-12.04,9.92
		C366.31,332.13,359.02,322.3,359.02,309.67z M377.41,296.11c0-3.22-0.76-6.1-3.39-6.1c-2.54,0-5.85,2.71-5.85,10.42
		c0,2.88,0.51,4.15,3.05,4.15C374.19,304.59,377.41,302.81,377.41,296.11z"/>
</g>
<g class="st0">
	<path class="st1" d="M414.54,294.42c0,4.15-2.54,8.22-5,8.22c-1.78,0-2.97-1.61-5.59-1.61c-1.78,0-2.8,1.27-2.8,5v16.78
		c0,5,1.61,7.37,2.46,8.47h-15.09c0.85-1.1,2.46-3.47,2.46-8.47v-23.9c0-5-1.61-7.37-2.46-8.47l12.63-2.37v10.08
		c0,0.85,0.25,1.19,0.68,1.19s0.59-0.25,1.02-1.1c2.37-5.34,4.32-10.17,7.8-10.17C413.01,288.06,414.54,290.94,414.54,294.42z"/>
</g>
<g class="st0">
	<path class="st1" d="M433.55,332.38v-9.75c-1.02,2.97-4.66,9.49-10.25,9.49c-6.19,0-11.19-8.14-11.19-19.83
		c0-13.9,7.2-24.24,17.8-24.24h3.64v-7.63c0-5-1.61-7.37-2.46-8.47l12.63-2.71v52.71c0,5,1.61,7.37,2.46,8.47L433.55,332.38z
		 M433.55,321.03v-24.32c0-5.17-1.86-6.95-4.07-6.95c-4.24,0-7.29,6.7-7.29,15.59c0,8.14,1.78,18.64,7.71,18.64
		C432.45,323.99,433.55,322.3,433.55,321.03z"/>
</g>
<g class="st0">
	<path class="st1" d="M446.27,323.82c0-12.8,17.71-13.9,17.71-28.05c0-2.29-0.51-6.02-2.8-6.02c-2.97,0-10,12.37-12.29,15.59h-0.17
		l1.44-15.34c3.05-1.19,8.3-1.95,12.2-1.95c8.22,0,11.78,3.73,11.78,12.03v23.56c0,2.37,0.76,3.73,3.31,3.73
		c0.34,0,0.85,0,1.44-0.42c0,2.29-3.98,5.17-7.88,5.17c-4.15,0-7.03-3.39-7.03-7.88c0-0.51-0.17-0.59-0.34-0.59
		c-1.44,0-3.31,8.48-10.17,8.48C449.58,332.13,446.27,329.42,446.27,323.82z M463.98,317.38v-9.41c0-1.53-0.17-1.78-0.68-1.78
		c-1.86,0-7.2,5.25-7.2,12.37c0,4.24,1.87,5.76,3.56,5.76C461.53,324.33,463.98,321.45,463.98,317.38z"/>
</g>
<g class="st0">
	<path class="st1" d="M521,322.81v-20.76c0-3.81-0.93-6.7-4.66-6.7c-2.63,0-4.83,1.44-5.68,2.12h-0.08c0.08,0.51,0.08,1.1,0.08,1.7
		v23.64c0,5,1.61,7.37,2.46,8.47h-15.08c0.85-1.1,2.46-3.47,2.46-8.47v-20.76c0-3.81-0.85-6.7-4.58-6.7c-2.54,0-4.66,1.36-5.68,2.03
		v25.42c0,5,1.61,7.37,2.46,8.47h-15.08c0.85-1.1,2.46-3.47,2.46-8.47v-23.9c0-5-1.61-7.37-2.46-8.47l12.63-2.37v7.8
		c2.8-3.05,7.88-7.8,13.22-7.8c4.07,0,6.44,2.63,7.03,8.05c2.8-2.97,7.97-8.05,13.48-8.05c4.75,0,7.2,3.56,7.2,11.1v23.64
		c0,5,1.61,7.37,2.46,8.47h-15.08C519.38,330.18,521,327.81,521,322.81z"/>
</g>
<g>
	<line class="st1" x1="149.81" y1="325.7" x2="213.1" y2="325.7"/>
	<rect x="149.81" y="320.96" class="st1" width="63.29" height="9.49"/>
</g>
<g class="st0">
	<path class="st1" d="M483.64,336.71h23.9c5,0,7.37-1.61,8.47-2.46l2.37,12.63h-34.75c-5,0-7.37,1.61-8.47,2.46v-15.08
		C476.27,335.1,478.64,336.71,483.64,336.71z M532.12,335.69c3.47,0,6.19,2.54,6.19,6.02c0,3.05-2.2,5.51-5.42,5.51
		c-5.34,0-7.37-6.36-7.8-8.14C526.1,337.81,529.07,335.69,532.12,335.69z"/>
</g>
<g class="st0">
	<path class="st1" d="M482.63,349.31c12.8,0,13.9,17.71,28.05,17.71c2.29,0,6.02-0.51,6.02-2.8c0-2.97-12.37-10-15.59-12.29v-0.17
		l15.34,1.44c1.19,3.05,1.95,8.3,1.95,12.2c0,8.22-3.73,11.78-12.03,11.78H482.8c-2.37,0-3.73,0.76-3.73,3.3
		c0,0.34,0,0.85,0.42,1.44c-2.29,0-5.17-3.98-5.17-7.88c0-4.15,3.39-7.03,7.88-7.03c0.51,0,0.59-0.17,0.59-0.34
		c0-1.44-8.48-3.31-8.48-10.17C474.32,352.62,477.04,349.31,482.63,349.31z M489.07,367.03h9.41c1.53,0,1.78-0.17,1.78-0.68
		c0-1.86-5.25-7.2-12.37-7.2c-4.24,0-5.76,1.87-5.76,3.56C482.12,364.57,485,367.03,489.07,367.03z"/>
</g>
<g class="st0">
	<path class="st1" d="M474.62,427.56c0-2.52,3.49-2.74,3.49-5.53c0-0.45-0.1-1.19-0.55-1.19c-0.58,0-1.97,2.44-2.42,3.07h-0.03
		l0.28-3.02c0.6-0.23,1.64-0.38,2.41-0.38c1.62,0,2.32,0.74,2.32,2.37v4.65c0,0.47,0.15,0.74,0.65,0.74c0.07,0,0.17,0,0.28-0.08
		c0,0.45-0.79,1.02-1.55,1.02c-0.82,0-1.39-0.67-1.39-1.55c0-0.1-0.03-0.12-0.07-0.12c-0.28,0-0.65,1.67-2,1.67
		C475.28,429.2,474.62,428.67,474.62,427.56z M478.12,426.29v-1.85c0-0.3-0.03-0.35-0.13-0.35c-0.37,0-1.42,1.04-1.42,2.44
		c0,0.84,0.37,1.14,0.7,1.14C477.63,427.66,478.12,427.09,478.12,426.29z"/>
</g>
<g class="st0">
	<path class="st1" d="M474.71,438.19c0-2.41,1.24-4.24,3.29-4.24c0.4,0,0.95,0.07,1.47,0.27c0.13,0.9,0.27,2.17,0.35,3.31h-0.02
		c-0.97-1.94-1.64-3.22-2.24-3.22c-0.38,0-1.02,0.52-1.02,2.42c0,2.02,0.77,4.38,2.69,4.38c0.38,0,0.7-0.08,0.94-0.42
		c-0.23,0.92-0.99,1.95-2.32,1.95C476.01,442.64,474.71,440.67,474.71,438.19z"/>
	<path class="st1" d="M480.92,438.28c0-2.47,1.29-4.33,3.24-4.33c2,0,3.14,1.97,3.14,4.33c0,2.51-1.3,4.36-3.26,4.36
		C482.06,442.64,480.92,440.67,480.92,438.28z M485.37,440.5c0-1.87-0.6-6.12-1.85-6.12c-0.47,0-0.67,0.6-0.67,1.69
		c0,1.89,0.62,6.12,1.85,6.12C485.17,442.19,485.37,441.6,485.37,440.5z"/>
	<path class="st1" d="M488.22,438.19c0-2.41,1.24-4.24,3.29-4.24c0.4,0,0.95,0.07,1.47,0.27c0.13,0.9,0.27,2.17,0.35,3.31h-0.02
		c-0.97-1.94-1.64-3.22-2.24-3.22c-0.38,0-1.02,0.52-1.02,2.42c0,2.02,0.77,4.38,2.69,4.38c0.38,0,0.7-0.08,0.94-0.42
		c-0.23,0.92-0.99,1.95-2.32,1.95C489.52,442.64,488.22,440.67,488.22,438.19z"/>
	<path class="st1" d="M496.84,440.8c0,0.99,0.32,1.45,0.49,1.67h-2.97c0.17-0.22,0.48-0.68,0.48-1.67v-8.35
		c0-0.99-0.32-1.45-0.48-1.67l2.49-0.55V440.8z M498.9,442.47l-2.06-4.31l0.69-0.83c1.02-1.25,1.12-1.59,1.12-1.94
		c0-0.63-0.45-1.15-0.89-1.25v-0.02h3.48v0.02c-1.14,0.58-1.59,0.87-2.64,2.25l-0.28,0.37l1.72,3.58c0.75,1.52,1.17,1.94,1.54,2.14
		H498.9z"/>
	<path class="st1" d="M505.95,441.62c-0.15,0.43-1.17,1.02-1.96,1.02c-0.83,0-1.49-0.68-1.49-1.7v-5.86h-0.94l2.94-3.56v2.62
		c0.57,0,1.02-0.02,1.35-0.05l-0.25,0.99h-1.1v5.5c0,0.67,0.25,1.14,0.89,1.14c0.13,0,0.32-0.02,0.53-0.08H505.95z"/>
	<path class="st1" d="M506.46,441c0-2.52,3.49-2.74,3.49-5.53c0-0.45-0.1-1.19-0.55-1.19c-0.58,0-1.97,2.44-2.42,3.07h-0.03
		l0.28-3.02c0.6-0.23,1.64-0.38,2.41-0.38c1.62,0,2.32,0.74,2.32,2.37v4.64c0,0.47,0.15,0.74,0.65,0.74c0.07,0,0.17,0,0.28-0.08
		c0,0.45-0.79,1.02-1.55,1.02c-0.82,0-1.39-0.67-1.39-1.55c0-0.1-0.03-0.12-0.07-0.12c-0.28,0-0.65,1.67-2,1.67
		C507.11,442.64,506.46,442.1,506.46,441z M509.95,439.73v-1.85c0-0.3-0.03-0.35-0.13-0.35c-0.37,0-1.42,1.04-1.42,2.44
		c0,0.83,0.37,1.14,0.7,1.14C509.47,441.1,509.95,440.53,509.95,439.73z"/>
	<path class="st1" d="M513.88,440.8v-4.71c0-0.99-0.32-1.45-0.48-1.67l2.49-0.47v6.85c0,0.99,0.32,1.45,0.49,1.67h-2.97
		C513.56,442.25,513.88,441.79,513.88,440.8z M513.68,431.24c0-0.69,0.5-1.22,1.19-1.22c0.6,0,1.09,0.43,1.09,1.07
		c0,1.05-1.25,1.45-1.6,1.54C514.1,432.43,513.68,431.85,513.68,431.24z"/>
	<path class="st1" d="M517.6,440.8v-8.35c0-0.99-0.32-1.45-0.48-1.67l2.49-0.55v10.58c0,0.99,0.32,1.45,0.48,1.67h-2.97
		C517.29,442.25,517.6,441.79,517.6,440.8z"/>
</g>
<g class="st0">
	<path class="st1" d="M475.19,454.18v-8.35c0-0.99-0.32-1.45-0.48-1.67l2.49-0.55v10.58c0,0.99,0.32,1.45,0.48,1.67h-2.97
		C474.87,455.64,475.19,455.17,475.19,454.18z"/>
	<path class="st1" d="M478.35,451.66c0-2.47,1.29-4.33,3.24-4.33c2.01,0,3.14,1.97,3.14,4.33c0,2.51-1.3,4.36-3.26,4.36
		C479.49,456.02,478.35,454.05,478.35,451.66z M482.79,453.88c0-1.87-0.6-6.12-1.85-6.12c-0.47,0-0.67,0.6-0.67,1.69
		c0,1.89,0.62,6.12,1.85,6.12C482.59,455.57,482.79,454.99,482.79,453.88z"/>
	<path class="st1" d="M490.01,456.02v-1.57c-0.55,0.6-1.55,1.57-2.62,1.57c-0.94,0-1.42-0.7-1.42-2.19v-4.03
		c0-1.15-0.32-1.79-0.49-2l2.49-0.47v5.93c0,0.75,0.17,1.3,0.9,1.3c0.52,0,0.97-0.28,1.14-0.42v-4.34c0-1.15-0.32-1.79-0.48-2
		l2.49-0.47v6.53c0,0.99,0.32,1.45,0.48,1.67L490.01,456.02z"/>
	<path class="st1" d="M497.86,454.18v-4.09c0-0.75-0.18-1.32-0.92-1.32c-0.5,0-0.92,0.27-1.12,0.4v5.01c0,0.99,0.32,1.45,0.48,1.67
		h-2.97c0.17-0.22,0.49-0.68,0.49-1.67v-4.71c0-0.99-0.32-1.45-0.49-1.67l2.49-0.47v1.54c0.57-0.58,1.57-1.54,2.62-1.54
		c0.94,0,1.42,0.7,1.42,2.19v4.66c0,0.99,0.32,1.45,0.48,1.67h-2.97C497.54,455.64,497.86,455.17,497.86,454.18z"/>
	<path class="st1" d="M507.28,456.84c0,1.24-1.57,2-3.26,2c-1.42,0-3.01-0.42-3.01-1.49c0-1.44,2.66-1.2,1.22-1.99
		c-0.54-0.28-0.82-0.52-0.82-0.85c0-0.3,0.17-0.48,1.05-1.07c0.3-0.18,0.4-0.27,0.4-0.38c0-0.1-0.1-0.18-0.4-0.37
		c-0.74-0.45-1.24-1.25-1.24-2.41c0-1.85,1.29-2.79,2.72-2.79h3.41l-1.25,1.14c0.35,0.42,0.6,0.99,0.6,1.72
		c0,1.74-1.25,2.72-2.72,2.72c-0.62,0-0.82,0.08-0.82,0.32c0,0.22,0.15,0.38,0.57,0.6C506.75,455.59,507.28,456.11,507.28,456.84z
		 M505.31,457.86c0-0.53-0.55-1.14-1.96-1.87c-0.4-0.22-0.77,0.17-0.77,0.82c0,0.89,0.74,1.72,1.72,1.72
		C504.81,458.53,505.31,458.36,505.31,457.86z M503.09,449.07c0,1.17,0.4,3.63,1.27,3.63c0.32,0,0.53-0.38,0.53-1.1
		c0-1.27-0.45-3.71-1.29-3.71C503.27,447.89,503.09,448.27,503.09,449.07z"/>
	<path class="st1" d="M507.87,451.59c0-2.41,1.34-4.26,3.21-4.26c1.39,0,2.32,0.99,2.29,2.56c0,0.43-0.08,0.85-0.25,1.09h-2.76
		c-0.38,0-0.55,0.1-0.55,0.48c0,1.22,0.97,3.02,2.77,3.02c0.42,0,0.79-0.1,1-0.42c-0.2,0.92-0.97,1.95-2.37,1.95
		C509.3,456.02,507.87,454.08,507.87,451.59z M511.49,448.92c0-0.63-0.15-1.2-0.67-1.2c-0.5,0-1.15,0.53-1.15,2.05
		c0,0.57,0.1,0.82,0.6,0.82C510.86,450.59,511.49,450.24,511.49,448.92z"/>
</g>
<g class="st0">
	<path class="st1" d="M483.64,403.68h20.76c3.81,0,6.7-0.93,6.7-4.66c0-2.54-1.36-4.66-2.03-5.68h-25.42c-5,0-7.37,1.61-8.47,2.46
		v-15.08c1.1,0.85,3.47,2.46,8.47,2.46h23.9c5,0,7.37-1.61,8.47-2.46l2.37,12.63h-7.8c2.97,2.88,7.8,7.97,7.8,13.3
		c0,4.75-3.56,7.2-11.1,7.2h-23.64c-5,0-7.37,1.61-8.47,2.46v-15.08C476.27,402.07,478.64,403.68,483.64,403.68z"/>
</g>
<g>
	
		<rect x="178.64" y="357.47" transform="matrix(0.7071 -0.7071 0.7071 0.7071 -231.5314 259.3169)" class="st2" width="37.23" height="103.35"/>
	
		<rect x="178.64" y="357.88" transform="matrix(-0.7071 -0.7071 0.7071 -0.7071 47.4328 837.9304)" class="st2" width="37.23" height="102.53"/>
	
		<rect x="279.87" y="357.47" transform="matrix(0.7071 -0.7071 0.7071 0.7071 -201.8811 330.8989)" class="st2" width="37.23" height="103.35"/>
	
		<rect x="279.87" y="357.88" transform="matrix(-0.7071 -0.7071 0.7071 -0.7071 220.2471 909.5123)" class="st2" width="37.23" height="102.53"/>
	
		<rect x="380.15" y="357.47" transform="matrix(0.7071 -0.7071 0.7071 0.7071 -172.511 401.8046)" class="st2" width="37.23" height="103.35"/>
	
		<rect x="380.15" y="357.88" transform="matrix(-0.7071 -0.7071 0.7071 -0.7071 391.4285 980.418)" class="st2" width="37.23" height="102.53"/>
</g>
</svg>
